<?xml version="1.0" encoding="utf-8"?>
<!-- Generator: Adobe Illustrator 21.0.2, SVG Export Plug-In . SVG Version: 6.00 Build 0)  -->
<svg version="1.1" id="Layer_1" xmlns="http://www.w3.org/2000/svg" xmlns:xlink="http://www.w3.org/1999/xlink" x="0px" y="0px"
	 viewBox="0 0 823.9 218.9" style="enable-background:new 0 0 823.9 218.9;" xml:space="preserve">
<style type="text/css">
	.st0{fill:url(#SVGID_1_);}
	.st1{fill:#262E39;}
</style>
<g>
	
		<linearGradient id="SVGID_1_" gradientUnits="userSpaceOnUse" x1="408.4821" y1="104.9256" x2="411.276" y2="104.9256" gradientTransform="matrix(53.556 -32.8927 -32.8927 -53.556 -18406.0176 19256.8828)">
		<stop  offset="0" style="stop-color:#A9E32C"/>
		<stop  offset="0.33" style="stop-color:#6BCC4E"/>
		<stop  offset="0.66" style="stop-color:#3CC495"/>
		<stop  offset="1" style="stop-color:#1AA1B6"/>
	</linearGradient>
	<path class="st0" d="M221.5,196.1L120.2,20.8c-0.6-1.1-2.4-1.1-3.1,0L16,196.1c-0.3,0.5-0.3,1.2,0,1.8c0.3,0.5,0.9,0.9,1.5,0.9H84
		h69.5h66.5c0.6,0,1.2-0.3,1.5-0.9C221.8,197.3,221.8,196.6,221.5,196.1z M91.7,95.3l24,41.5H67.7L91.7,95.3z M91.7,181.8l-24-41.5
		h47.9L91.7,181.8z M94.7,93.5h47.9l-24,41.5L94.7,93.5z M94.7,183.6l24-41.5l24,41.5H94.7z M152.4,83.7l30.7,53.1h-61.3L152.4,83.7
		z M121.8,140.3h61.3l-30.7,53.1L121.8,140.3z M118.7,25.2l30.7,53.2H88L118.7,25.2z M20.6,195.2L51.2,142l30.7,53.1H20.6z
		 M155.5,195.2l30.7-53.1l30.7,53.1H155.5z"/>
</g>
<g>
	<path class="st1" d="M276.2,114.9h-6l23.2-53.8h5.3l23.1,53.8h-6.1l-5.9-14.1h-27.8L276.2,114.9z M284.1,95.7h23.7L296,67.2
		L284.1,95.7z"/>
	<path class="st1" d="M331.8,94.8V61.1h5.5v33.1c0,8.7,3.7,17.2,14.7,17.2c10.9,0,14.7-8.5,14.7-17.2V61.1h5.5v33.7
		c0,9-4,21.4-20.1,21.4C335.8,116.2,331.8,103.8,331.8,94.8z"/>
	<polygon class="st1" points="406.4,114.9 401,114.9 401,65.9 383,65.9 383,61.1 424.4,61.1 424.4,65.9 406.4,65.9 	"/>
	<path class="st1" d="M458.6,116.2c-16,0-28-11.9-28-28.3c0-16.3,12-28.3,28-28.3c16,0,28,11.9,28,28.3
		C486.6,104.3,474.6,116.2,458.6,116.2z M458.6,64.5c-13.8,0-22.3,10.9-22.3,23.5c0,12.5,8.4,23.4,22.3,23.4s22.3-10.9,22.3-23.4
		C480.8,75.4,472.4,64.5,458.6,64.5z"/>
	<polygon class="st1" points="527.8,105.6 527.8,105.6 545.8,61.1 554.2,61.1 554.2,114.9 548.7,114.9 548.7,68.1 548.6,68.1 
		529.1,114.9 526.2,114.9 506.8,68.1 506.6,68.1 506.6,114.9 501.2,114.9 501.2,61.1 509.5,61.1 	"/>
	<path class="st1" d="M571.3,114.9h-6l23.2-53.8h5.3l23.1,53.8h-6.1l-5.9-14.1h-27.8L571.3,114.9z M579.2,95.7h23.7l-11.9-28.6
		L579.2,95.7z"/>
	<polygon class="st1" points="640.7,114.9 635.3,114.9 635.3,65.9 617.3,65.9 617.3,61.1 658.7,61.1 658.7,65.9 640.7,65.9 	"/>
	<rect x="670" y="61.1" class="st1" width="5.5" height="53.8"/>
	<path class="st1" d="M718.1,116.2c-16,0-28-11.9-28-28.3c0-16.3,12-28.3,28-28.3c16,0,28,11.9,28,28.3
		C746.1,104.3,734.1,116.2,718.1,116.2z M718.1,64.5c-13.8,0-22.3,10.9-22.3,23.5c0,12.5,8.4,23.4,22.3,23.4
		c13.8,0,22.3-10.9,22.3-23.4C740.3,75.4,731.9,64.5,718.1,64.5z"/>
	<polygon class="st1" points="798.8,106.9 799,106.9 799,61.1 804.5,61.1 804.5,114.9 797.6,114.9 766.3,68.6 766.2,68.6 
		766.2,114.9 760.7,114.9 760.7,61.1 767.5,61.1 	"/>
</g>
<g>
	<path class="st1" d="M295.4,199c-16.6,0-28.9-11.5-28.9-28.4c0-17.2,12.8-28.3,29.2-28.3c7.5,0,15.6,2.7,20.1,7.9L307,159
		c-2.4-3.3-6.8-4.9-10.9-4.9c-9,0-15.5,7-15.5,16.5c0,9.8,6.3,16.5,15.3,16.5c5.1,0,9.1-2.3,11.4-5.5l9,8.5
		C311.6,195.6,304.5,199,295.4,199z"/>
	<path class="st1" d="M362,197.5l-4.2-10.6H337l-4,10.6h-14.1l22.6-53.8h12.6l22.3,53.8H362z M347.6,158.1l-6.8,18.5h13.5
		L347.6,158.1z"/>
	<polygon class="st1" points="385.5,197.5 385.5,143.8 398.5,143.8 398.5,186.2 419.4,186.2 419.4,197.5 	"/>
	<path class="st1" d="M454.1,199c-16.6,0-28.9-11.5-28.9-28.4c0-17.2,12.8-28.3,29.2-28.3c7.5,0,15.6,2.7,20.1,7.9l-8.8,8.8
		c-2.4-3.3-6.8-4.9-10.9-4.9c-9,0-15.5,7-15.5,16.5c0,9.8,6.3,16.5,15.3,16.5c5.1,0,9.1-2.3,11.4-5.5l9,8.5
		C470.3,195.6,463.2,199,454.1,199z"/>
	<path class="st1" d="M507.6,199c-14.1,0-22.9-8.8-22.9-21.7v-33.5h12.9v32.4c0,5.8,2.8,11.1,10.1,11.1c7.4,0,10.1-5.3,10.1-11.1
		v-32.4h13v33.5C530.7,190.2,521.6,199,507.6,199z"/>
	<polygon class="st1" points="545.8,197.5 545.8,143.8 558.8,143.8 558.8,186.2 579.7,186.2 579.7,197.5 	"/>
	<path class="st1" d="M629.6,197.5l-4.2-10.6h-20.8l-4,10.6h-14.1l22.6-53.8h12.6l22.3,53.8H629.6z M615.2,158.1l-6.8,18.5h13.5
		L615.2,158.1z"/>
	<polygon class="st1" points="671.6,154.8 671.6,197.5 658.6,197.5 658.6,154.8 643.4,154.8 643.4,143.8 686.8,143.8 686.8,154.8 	
		"/>
	<path class="st1" d="M721.7,199c-16.8,0-29.2-11.5-29.2-28.6c0-17.2,12.5-28.1,29.2-28.1c16.9,0,29.3,10.9,29.3,28.1
		C751.1,187.4,738.6,199,721.7,199z M721.7,154c-9.1,0-15.3,7-15.3,16.4c0,9.7,6.3,16.7,15.3,16.7c9,0,15.4-7,15.4-16.7
		C737.2,161,730.8,154,721.7,154z"/>
	<path class="st1" d="M793,197.5l-11.6-21.3H777v21.3h-12.8v-53.8h20.5c10.3,0,20.6,4,20.6,16.3c0,7.2-4.3,12.4-11.2,14.5l14.1,23
		H793z M783.8,154.2h-6.9v12.5h6.2c4.2,0,9.4-1.1,9.4-6.5C792.5,155.2,787.7,154.2,783.8,154.2z"/>
</g>
</svg>
