<?xml version="1.0" encoding="UTF-8" standalone="no"?>
<!DOCTYPE svg PUBLIC "-//W3C//DTD SVG 1.1//EN"
 "http://www.w3.org/Graphics/SVG/1.1/DTD/svg11.dtd">
<!-- Generated by graphviz version 2.40.1 (0)
 -->
<!-- Title: app_structure Pages: 1 -->
<svg width="1375pt" height="670pt"
 viewBox="0.00 0.00 1375.00 669.71" xmlns="http://www.w3.org/2000/svg" xmlns:xlink="http://www.w3.org/1999/xlink">
<g id="graph0" class="graph" transform="scale(1 1) rotate(0) translate(4 665.7132)">
<title>app_structure</title>
<polygon fill="#ffffff" stroke="transparent" points="-4,4 -4,-665.7132 1371,-665.7132 1371,4 -4,4"/>
<g id="clust1" class="cluster">
<title>cluster_html</title>
<path fill="#eef5ff" stroke="#88aadd" d="M20,-8C20,-8 271,-8 271,-8 277,-8 283,-14 283,-20 283,-20 283,-497.5 283,-497.5 283,-503.5 277,-509.5 271,-509.5 271,-509.5 20,-509.5 20,-509.5 14,-509.5 8,-503.5 8,-497.5 8,-497.5 8,-20 8,-20 8,-14 14,-8 20,-8"/>
<text text-anchor="middle" x="121.5" y="-496.7" font-family="Helvetica,sans-Serif" font-size="11.00" fill="#000000">HTML interface (Devise session auth)</text>
</g>
<g id="clust2" class="cluster">
<title>cluster_api</title>
<path fill="#fbeaea" stroke="#cc7777" d="M439,-175C439,-175 720,-175 720,-175 726,-175 732,-181 732,-187 732,-187 732,-514 732,-514 732,-520 726,-526 720,-526 720,-526 439,-526 439,-526 433,-526 427,-520 427,-514 427,-514 427,-187 427,-187 427,-181 433,-175 439,-175"/>
<text text-anchor="middle" x="500.5" y="-513.2" font-family="Helvetica,sans-Serif" font-size="11.00" fill="#000000">JSON API v1 (JWT auth)</text>
</g>
<g id="clust3" class="cluster">
<title>cluster_services</title>
<path fill="#eefbe9" stroke="#77aa55" d="M752,-167C752,-167 1005,-167 1005,-167 1011,-167 1017,-173 1017,-179 1017,-179 1017,-263 1017,-263 1017,-269 1011,-275 1005,-275 1005,-275 752,-275 752,-275 746,-275 740,-269 740,-263 740,-263 740,-179 740,-179 740,-173 746,-167 752,-167"/>
<text text-anchor="middle" x="772" y="-262.2" font-family="Helvetica,sans-Serif" font-size="11.00" fill="#000000">Services</text>
</g>
<g id="clust4" class="cluster">
<title>cluster_models</title>
<path fill="#f4ecf9" stroke="#9977bb" d="M1037,-85C1037,-85 1296,-85 1296,-85 1302,-85 1308,-91 1308,-97 1308,-97 1308,-641.7132 1308,-641.7132 1308,-647.7132 1302,-653.7132 1296,-653.7132 1296,-653.7132 1037,-653.7132 1037,-653.7132 1031,-653.7132 1025,-647.7132 1025,-641.7132 1025,-641.7132 1025,-97 1025,-97 1025,-91 1031,-85 1037,-85"/>
<text text-anchor="middle" x="1093" y="-640.9132" font-family="Helvetica,sans-Serif" font-size="11.00" fill="#000000">ActiveRecord domain</text>
</g>
<!-- browser -->
<g id="node1" class="node">
<title>browser</title>
<ellipse fill="#f3f3f3" stroke="#000000" cx="191" cy="-585.2132" rx="47.1863" ry="18"/>
<text text-anchor="middle" x="191" y="-582.7132" font-family="Helvetica,sans-Serif" font-size="10.00" fill="#000000">Web browser</text>
</g>
<!-- html_ctrl -->
<g id="node3" class="node">
<title>html_ctrl</title>
<path fill="#ffffff" stroke="#000000" d="M263.5,-461.5C263.5,-461.5 118.5,-461.5 118.5,-461.5 112.5,-461.5 106.5,-455.5 106.5,-449.5 106.5,-449.5 106.5,-432.5 106.5,-432.5 106.5,-426.5 112.5,-420.5 118.5,-420.5 118.5,-420.5 263.5,-420.5 263.5,-420.5 269.5,-420.5 275.5,-426.5 275.5,-432.5 275.5,-432.5 275.5,-449.5 275.5,-449.5 275.5,-455.5 269.5,-461.5 263.5,-461.5"/>
<text text-anchor="middle" x="191" y="-449.5" font-family="Helvetica,sans-Serif" font-size="10.00" fill="#000000">AutomationScenariosController</text>
<text text-anchor="middle" x="191" y="-438.5" font-family="Helvetica,sans-Serif" font-size="10.00" fill="#000000">VisitorsController</text>
<text text-anchor="middle" x="191" y="-427.5" font-family="Helvetica,sans-Serif" font-size="10.00" fill="#000000">LandingPageController</text>
</g>
<!-- browser&#45;&gt;html_ctrl -->
<g id="edge1" class="edge">
<title>browser&#45;&gt;html_ctrl</title>
<path fill="none" stroke="#555555" d="M191,-566.9485C191,-543.1574 191,-501.1978 191,-472.2896"/>
<polygon fill="#555555" stroke="#555555" points="194.5001,-471.9144 191,-461.9144 187.5001,-471.9145 194.5001,-471.9144"/>
<text text-anchor="middle" x="202.5" y="-536.8" font-family="Helvetica,sans-Serif" font-size="9.00" fill="#000000">HTTP</text>
</g>
<!-- apiclient -->
<g id="node2" class="node">
<title>apiclient</title>
<ellipse fill="#f3f3f3" stroke="#000000" cx="579" cy="-585.2132" rx="119.5021" ry="21.4286"/>
<text text-anchor="middle" x="579" y="-588.2132" font-family="Helvetica,sans-Serif" font-size="10.00" fill="#000000">API client</text>
<text text-anchor="middle" x="579" y="-577.2132" font-family="Helvetica,sans-Serif" font-size="10.00" fill="#000000">(HTTP_ACCESS_TOKEN header)</text>
</g>
<!-- api_ctrl -->
<g id="node7" class="node">
<title>api_ctrl</title>
<path fill="#ffffff" stroke="#000000" d="M651.5,-478C651.5,-478 506.5,-478 506.5,-478 500.5,-478 494.5,-472 494.5,-466 494.5,-466 494.5,-416 494.5,-416 494.5,-410 500.5,-404 506.5,-404 506.5,-404 651.5,-404 651.5,-404 657.5,-404 663.5,-410 663.5,-416 663.5,-416 663.5,-466 663.5,-466 663.5,-472 657.5,-478 651.5,-478"/>
<text text-anchor="middle" x="579" y="-466" font-family="Helvetica,sans-Serif" font-size="10.00" fill="#000000">api/v1/</text>
<text text-anchor="middle" x="579" y="-455" font-family="Helvetica,sans-Serif" font-size="10.00" fill="#000000">AutomationScenariosController</text>
<text text-anchor="middle" x="579" y="-444" font-family="Helvetica,sans-Serif" font-size="10.00" fill="#000000">SolutionsController</text>
<text text-anchor="middle" x="579" y="-433" font-family="Helvetica,sans-Serif" font-size="10.00" fill="#000000">IterationsController</text>
<text text-anchor="middle" x="579" y="-422" font-family="Helvetica,sans-Serif" font-size="10.00" fill="#000000">UsersController</text>
<text text-anchor="middle" x="579" y="-411" font-family="Helvetica,sans-Serif" font-size="10.00" fill="#000000">UserSessionsController</text>
</g>
<!-- apiclient&#45;&gt;api_ctrl -->
<g id="edge2" class="edge">
<title>apiclient&#45;&gt;api_ctrl</title>
<path fill="none" stroke="#555555" d="M579,-563.934C579,-544.1016 579,-513.8318 579,-488.2922"/>
<polygon fill="#555555" stroke="#555555" points="582.5001,-488.0448 579,-478.0448 575.5001,-488.0448 582.5001,-488.0448"/>
<text text-anchor="middle" x="606" y="-536.8" font-family="Helvetica,sans-Serif" font-size="9.00" fill="#000000">HTTP + JWT</text>
</g>
<!-- haml -->
<g id="node4" class="node">
<title>haml</title>
<path fill="#ffffff" stroke="#000000" d="M78,-219C78,-219 28,-219 28,-219 22,-219 16,-213 16,-207 16,-207 16,-195 16,-195 16,-189 22,-183 28,-183 28,-183 78,-183 78,-183 84,-183 90,-189 90,-195 90,-195 90,-207 90,-207 90,-213 84,-219 78,-219"/>
<text text-anchor="middle" x="53" y="-204" font-family="Helvetica,sans-Serif" font-size="10.00" fill="#000000">Haml views</text>
<text text-anchor="middle" x="53" y="-193" font-family="Helvetica,sans-Serif" font-size="10.00" fill="#000000">app/views/</text>
</g>
<!-- html_ctrl&#45;&gt;haml -->
<g id="edge6" class="edge">
<title>html_ctrl&#45;&gt;haml</title>
<path fill="none" stroke="#555555" d="M178.9948,-420.1214C153.9737,-376.6065 96.2708,-276.2536 68.4939,-227.946"/>
<polygon fill="#555555" stroke="#555555" points="71.375,-225.935 63.3561,-219.0106 65.3067,-229.4244 71.375,-225.935"/>
<text text-anchor="middle" x="158.5" y="-331.3" font-family="Helvetica,sans-Serif" font-size="9.00" fill="#000000">renders</text>
</g>
<!-- graph_ser -->
<g id="node5" class="node">
<title>graph_ser</title>
<path fill="#ffffff" stroke="#000000" d="M263,-221.5C263,-221.5 127,-221.5 127,-221.5 121,-221.5 115,-215.5 115,-209.5 115,-209.5 115,-192.5 115,-192.5 115,-186.5 121,-180.5 127,-180.5 127,-180.5 263,-180.5 263,-180.5 269,-180.5 275,-186.5 275,-192.5 275,-192.5 275,-209.5 275,-209.5 275,-215.5 269,-221.5 263,-221.5"/>
<text text-anchor="middle" x="195" y="-209.5" font-family="Helvetica,sans-Serif" font-size="10.00" fill="#000000">AutomationScenarioForGraph</text>
<text text-anchor="middle" x="195" y="-198.5" font-family="Helvetica,sans-Serif" font-size="10.00" fill="#000000">Serializer</text>
<text text-anchor="middle" x="195" y="-187.5" font-family="Helvetica,sans-Serif" font-size="10.00" fill="#000000">(precomputes intersections)</text>
</g>
<!-- html_ctrl&#45;&gt;graph_ser -->
<g id="edge7" class="edge">
<title>html_ctrl&#45;&gt;graph_ser</title>
<path fill="none" stroke="#555555" d="M191.348,-420.1214C192.0545,-377.7285 193.6602,-281.3907 194.4869,-231.7845"/>
<polygon fill="#555555" stroke="#555555" points="197.9884,-231.7164 194.6557,-221.6594 190.9894,-231.5997 197.9884,-231.7164"/>
<text text-anchor="middle" x="219.5" y="-331.3" font-family="Helvetica,sans-Serif" font-size="9.00" fill="#000000">builds JSON</text>
</g>
<!-- visitable -->
<g id="node10" class="node">
<title>visitable</title>
<path fill="#fff4cc" stroke="#cc9900" d="M407,-354C407,-354 303,-354 303,-354 297,-354 291,-348 291,-342 291,-342 291,-325 291,-325 291,-319 297,-313 303,-313 303,-313 407,-313 407,-313 413,-313 419,-319 419,-325 419,-325 419,-342 419,-342 419,-348 413,-354 407,-354"/>
<text text-anchor="middle" x="355" y="-342" font-family="Helvetica,sans-Serif" font-size="10.00" fill="#000000">Visitable concern</text>
<text text-anchor="middle" x="355" y="-331" font-family="Helvetica,sans-Serif" font-size="10.00" fill="#000000">current_visitor /</text>
<text text-anchor="middle" x="355" y="-320" font-family="Helvetica,sans-Serif" font-size="10.00" fill="#000000">current_user_or_visitor</text>
</g>
<!-- html_ctrl&#45;&gt;visitable -->
<g id="edge3" class="edge">
<title>html_ctrl&#45;&gt;visitable</title>
<path fill="none" stroke="#555555" d="M203.3355,-420.3339C213.0366,-405.6325 227.7663,-386.3711 245,-374 251.8408,-369.0894 265.7542,-363.1213 281.4527,-357.2925"/>
<polygon fill="#555555" stroke="#555555" points="282.6508,-360.5811 290.862,-353.8858 280.2678,-353.9992 282.6508,-360.5811"/>
<text text-anchor="middle" x="264" y="-376.8" font-family="Helvetica,sans-Serif" font-size="9.00" fill="#000000">includes</text>
</g>
<!-- scenario -->
<g id="node15" class="node">
<title>scenario</title>
<path fill="#ffffff" stroke="#000000" d="M1137,-354C1137,-354 1045,-354 1045,-354 1039,-354 1033,-348 1033,-342 1033,-342 1033,-325 1033,-325 1033,-319 1039,-313 1045,-313 1045,-313 1137,-313 1137,-313 1143,-313 1149,-319 1149,-325 1149,-325 1149,-342 1149,-342 1149,-348 1143,-354 1137,-354"/>
<text text-anchor="middle" x="1091" y="-342" font-family="Helvetica,sans-Serif" font-size="10.00" fill="#000000">AutomationScenario</text>
<text text-anchor="middle" x="1091" y="-331" font-family="Helvetica,sans-Serif" font-size="10.00" fill="#000000">belongs_to :owner,</text>
<text text-anchor="middle" x="1091" y="-320" font-family="Helvetica,sans-Serif" font-size="10.00" fill="#000000">polymorphic</text>
</g>
<!-- html_ctrl&#45;&gt;scenario -->
<g id="edge14" class="edge">
<title>html_ctrl&#45;&gt;scenario</title>
<path fill="none" stroke="#555555" stroke-dasharray="5,2" d="M248.2924,-420.4332C294.3226,-404.8585 360.9684,-384.4234 421,-374 435.6812,-371.4509 854.8235,-347.109 1022.5713,-337.4353"/>
<polygon fill="#555555" stroke="#555555" points="1016.1044,-342.6024 1025,-336.8473 1014.4571,-335.799 1016.1044,-342.6024"/>
</g>
<!-- coffee -->
<g id="node6" class="node">
<title>coffee</title>
<path fill="#ffffff" stroke="#000000" d="M162,-52C162,-52 28,-52 28,-52 22,-52 16,-46 16,-40 16,-40 16,-28 16,-28 16,-22 22,-16 28,-16 28,-16 162,-16 162,-16 168,-16 174,-22 174,-28 174,-28 174,-40 174,-40 174,-46 168,-52 162,-52"/>
<text text-anchor="middle" x="95" y="-37" font-family="Helvetica,sans-Serif" font-size="10.00" fill="#000000">automation_scenarios.coffee</text>
<text text-anchor="middle" x="95" y="-26" font-family="Helvetica,sans-Serif" font-size="10.00" fill="#000000">→ Plotly.js → #solutionsChart</text>
</g>
<!-- haml&#45;&gt;coffee -->
<g id="edge8" class="edge">
<title>haml&#45;&gt;coffee</title>
<path fill="none" stroke="#555555" d="M57.5747,-182.8102C64.8963,-153.6979 79.3,-96.426 87.9466,-62.0457"/>
<polygon fill="#555555" stroke="#555555" points="91.3862,-62.7191 90.431,-52.1674 84.5976,-61.0117 91.3862,-62.7191"/>
<text text-anchor="middle" x="121.5" y="-116.3" font-family="Helvetica,sans-Serif" font-size="9.00" fill="#000000">#scenarioData →</text>
<text text-anchor="middle" x="121.5" y="-106.3" font-family="Helvetica,sans-Serif" font-size="9.00" fill="#000000">turbolinks:load</text>
</g>
<!-- jwt -->
<g id="node8" class="node">
<title>jwt</title>
<path fill="#ffffff" stroke="#000000" d="M555,-219C555,-219 447,-219 447,-219 441,-219 435,-213 435,-207 435,-207 435,-195 435,-195 435,-189 441,-183 447,-183 447,-183 555,-183 555,-183 561,-183 567,-189 567,-195 567,-195 567,-207 567,-207 567,-213 561,-219 555,-219"/>
<text text-anchor="middle" x="501" y="-204" font-family="Helvetica,sans-Serif" font-size="10.00" fill="#000000">JwtTokenService</text>
<text text-anchor="middle" x="501" y="-193" font-family="Helvetica,sans-Serif" font-size="10.00" fill="#000000">(encode/decode HS256)</text>
</g>
<!-- api_ctrl&#45;&gt;jwt -->
<g id="edge5" class="edge">
<title>api_ctrl&#45;&gt;jwt</title>
<path fill="none" stroke="#555555" d="M557.0332,-403.8678C548.8568,-388.7955 540.0942,-370.9639 534,-354 518.8786,-311.9082 509.5602,-260.695 504.8336,-229.4893"/>
<polygon fill="#555555" stroke="#555555" points="508.259,-228.7233 503.3513,-219.3337 501.3324,-229.7343 508.259,-228.7233"/>
<text text-anchor="middle" x="578" y="-336.3" font-family="Helvetica,sans-Serif" font-size="9.00" fill="#000000">decode token →</text>
<text text-anchor="middle" x="578" y="-326.3" font-family="Helvetica,sans-Serif" font-size="9.00" fill="#000000">user_id or visitor_id</text>
</g>
<!-- serializers -->
<g id="node9" class="node">
<title>serializers</title>
<path fill="#ffffff" stroke="#000000" d="M711.5,-219C711.5,-219 604.5,-219 604.5,-219 598.5,-219 592.5,-213 592.5,-207 592.5,-207 592.5,-195 592.5,-195 592.5,-189 598.5,-183 604.5,-183 604.5,-183 711.5,-183 711.5,-183 717.5,-183 723.5,-189 723.5,-195 723.5,-195 723.5,-207 723.5,-207 723.5,-213 717.5,-219 711.5,-219"/>
<text text-anchor="middle" x="658" y="-204" font-family="Helvetica,sans-Serif" font-size="10.00" fill="#000000">ActiveModel Serializers</text>
<text text-anchor="middle" x="658" y="-193" font-family="Helvetica,sans-Serif" font-size="10.00" fill="#000000">app/serializers/</text>
</g>
<!-- api_ctrl&#45;&gt;serializers -->
<g id="edge9" class="edge">
<title>api_ctrl&#45;&gt;serializers</title>
<path fill="none" stroke="#555555" d="M600.9124,-403.8482C609.0812,-388.7731 617.8529,-370.9448 624,-354 639.2734,-311.8981 648.9617,-260.6878 653.9331,-229.4855"/>
<polygon fill="#555555" stroke="#555555" points="657.434,-229.7471 655.4962,-219.331 650.5155,-228.682 657.434,-229.7471"/>
<text text-anchor="middle" x="663.5" y="-331.3" font-family="Helvetica,sans-Serif" font-size="9.00" fill="#000000">render json:</text>
</g>
<!-- api_ctrl&#45;&gt;visitable -->
<g id="edge4" class="edge">
<title>api_ctrl&#45;&gt;visitable</title>
<path fill="none" stroke="#555555" d="M501.5982,-403.8541C470.3544,-388.8598 435.1272,-371.9539 407.0366,-358.4729"/>
<polygon fill="#555555" stroke="#555555" points="408.3298,-355.2114 397.7999,-354.0401 405.3011,-361.5223 408.3298,-355.2114"/>
<text text-anchor="middle" x="472" y="-376.8" font-family="Helvetica,sans-Serif" font-size="9.00" fill="#000000">includes</text>
</g>
<!-- api_ctrl&#45;&gt;scenario -->
<g id="edge15" class="edge">
<title>api_ctrl&#45;&gt;scenario</title>
<path fill="none" stroke="#555555" stroke-dasharray="5,2" d="M663.5464,-423.2486C764.1201,-402.132 930.0346,-367.2964 1022.8059,-347.8181"/>
<polygon fill="#555555" stroke="#555555" points="1017.5367,-354.2716 1025,-346.7515 1014.4761,-347.9761 1017.5367,-354.2716"/>
</g>
<!-- solution_pair -->
<g id="node11" class="node">
<title>solution_pair</title>
<path fill="#ffffff" stroke="#000000" d="M997,-227C997,-227 889,-227 889,-227 883,-227 877,-221 877,-215 877,-215 877,-187 877,-187 877,-181 883,-175 889,-175 889,-175 997,-175 997,-175 1003,-175 1009,-181 1009,-187 1009,-187 1009,-215 1009,-215 1009,-221 1003,-227 997,-227"/>
<text text-anchor="middle" x="943" y="-215" font-family="Helvetica,sans-Serif" font-size="10.00" fill="#000000">SolutionPair</text>
<text text-anchor="middle" x="943" y="-204" font-family="Helvetica,sans-Serif" font-size="10.00" fill="#000000">intersection_iteration =</text>
<text text-anchor="middle" x="943" y="-193" font-family="Helvetica,sans-Serif" font-size="10.00" fill="#000000">(c1.init − c2.init) /</text>
<text text-anchor="middle" x="943" y="-182" font-family="Helvetica,sans-Serif" font-size="10.00" fill="#000000">(c2.iter − c1.iter)</text>
</g>
<!-- solution_pair&#45;&gt;graph_ser -->
<g id="edge17" class="edge">
<title>solution_pair&#45;&gt;graph_ser</title>
<path fill="none" stroke="#555555" d="M922.6346,-227.259C908.2497,-243.5463 887.4174,-263.0233 864,-272 772.0779,-307.2369 518.3065,-286.9253 421,-272 363.0551,-263.1122 299.5716,-242.1099 254.6818,-225.2393"/>
<polygon fill="#555555" stroke="#555555" points="255.7013,-221.8825 245.1102,-221.5989 253.2127,-228.4253 255.7013,-221.8825"/>
<text text-anchor="middle" x="580" y="-285.8" font-family="Helvetica,sans-Serif" font-size="9.00" fill="#000000">intersection_point</text>
</g>
<!-- solution_tuple -->
<g id="node12" class="node">
<title>solution_tuple</title>
<path fill="#ffffff" stroke="#000000" d="M839.5,-221.5C839.5,-221.5 760.5,-221.5 760.5,-221.5 754.5,-221.5 748.5,-215.5 748.5,-209.5 748.5,-209.5 748.5,-192.5 748.5,-192.5 748.5,-186.5 754.5,-180.5 760.5,-180.5 760.5,-180.5 839.5,-180.5 839.5,-180.5 845.5,-180.5 851.5,-186.5 851.5,-192.5 851.5,-192.5 851.5,-209.5 851.5,-209.5 851.5,-215.5 845.5,-221.5 839.5,-221.5"/>
<text text-anchor="middle" x="800" y="-209.5" font-family="Helvetica,sans-Serif" font-size="10.00" fill="#000000">SolutionTuple</text>
<text text-anchor="middle" x="800" y="-198.5" font-family="Helvetica,sans-Serif" font-size="10.00" fill="#000000">sorts solutions by</text>
<text text-anchor="middle" x="800" y="-187.5" font-family="Helvetica,sans-Serif" font-size="10.00" fill="#000000">total cost at N</text>
</g>
<!-- user -->
<g id="node13" class="node">
<title>user</title>
<path fill="#ffffff" stroke="#000000" d="M1287.5,-605.7132C1287.5,-605.7132 1194.5,-605.7132 1194.5,-605.7132 1188.5,-605.7132 1182.5,-599.7132 1182.5,-593.7132 1182.5,-593.7132 1182.5,-576.7132 1182.5,-576.7132 1182.5,-570.7132 1188.5,-564.7132 1194.5,-564.7132 1194.5,-564.7132 1287.5,-564.7132 1287.5,-564.7132 1293.5,-564.7132 1299.5,-570.7132 1299.5,-576.7132 1299.5,-576.7132 1299.5,-593.7132 1299.5,-593.7132 1299.5,-599.7132 1293.5,-605.7132 1287.5,-605.7132"/>
<text text-anchor="middle" x="1241" y="-593.7132" font-family="Helvetica,sans-Serif" font-size="10.00" fill="#000000">User</text>
<text text-anchor="middle" x="1241" y="-582.7132" font-family="Helvetica,sans-Serif" font-size="10.00" fill="#000000">(Devise + OmniAuth</text>
<text text-anchor="middle" x="1241" y="-571.7132" font-family="Helvetica,sans-Serif" font-size="10.00" fill="#000000">Google / GitHub)</text>
</g>
<!-- user&#45;&gt;scenario -->
<g id="edge10" class="edge">
<title>user&#45;&gt;scenario</title>
<path fill="none" stroke="#555555" d="M1235.2107,-564.5773C1224.7384,-529.4744 1200.3117,-456.8146 1164,-404 1153.1524,-388.2224 1138.3598,-373.1359 1124.9263,-360.9968"/>
<polygon fill="#555555" stroke="#555555" points="1127.0325,-358.188 1117.214,-354.2072 1122.407,-363.4421 1127.0325,-358.188"/>
<text text-anchor="middle" x="1263.5" y="-438.8" font-family="Helvetica,sans-Serif" font-size="9.00" fill="#000000">has_many (owner)</text>
</g>
<!-- db -->
<g id="node18" class="node">
<title>db</title>
<path fill="#f3f3f3" stroke="#000000" d="M1296,-48.7273C1296,-50.5331 1279.8642,-52 1260,-52 1240.1358,-52 1224,-50.5331 1224,-48.7273 1224,-48.7273 1224,-19.2727 1224,-19.2727 1224,-17.4669 1240.1358,-16 1260,-16 1279.8642,-16 1296,-17.4669 1296,-19.2727 1296,-19.2727 1296,-48.7273 1296,-48.7273"/>
<path fill="none" stroke="#000000" d="M1296,-48.7273C1296,-46.9214 1279.8642,-45.4545 1260,-45.4545 1240.1358,-45.4545 1224,-46.9214 1224,-48.7273"/>
<text text-anchor="middle" x="1260" y="-31.5" font-family="Helvetica,sans-Serif" font-size="10.00" fill="#000000">PostgreSQL</text>
</g>
<!-- user&#45;&gt;db -->
<g id="edge22" class="edge">
<title>user&#45;&gt;db</title>
<path fill="none" stroke="#aaaaaa" stroke-dasharray="5,2" d="M1299.7273,-568.6292C1312.7576,-562.6386 1325.4998,-554.6282 1335,-544 1366.9462,-508.2604 1367,-488.9362 1367,-441 1367,-441 1367,-441 1367,-113.5 1367,-81.0642 1334.9278,-60.3153 1305.9015,-48.1788"/>
<polygon fill="#aaaaaa" stroke="#aaaaaa" points="1306.813,-44.777 1296.2253,-44.3887 1304.26,-51.2948 1306.813,-44.777"/>
</g>
<!-- visitor -->
<g id="node14" class="node">
<title>visitor</title>
<path fill="#ffffff" stroke="#000000" d="M1145,-605.7132C1145,-605.7132 1045,-605.7132 1045,-605.7132 1039,-605.7132 1033,-599.7132 1033,-593.7132 1033,-593.7132 1033,-576.7132 1033,-576.7132 1033,-570.7132 1039,-564.7132 1045,-564.7132 1045,-564.7132 1145,-564.7132 1145,-564.7132 1151,-564.7132 1157,-570.7132 1157,-576.7132 1157,-576.7132 1157,-593.7132 1157,-593.7132 1157,-599.7132 1151,-605.7132 1145,-605.7132"/>
<text text-anchor="middle" x="1095" y="-593.7132" font-family="Helvetica,sans-Serif" font-size="10.00" fill="#000000">Visitor</text>
<text text-anchor="middle" x="1095" y="-582.7132" font-family="Helvetica,sans-Serif" font-size="10.00" fill="#000000">(anonymous,</text>
<text text-anchor="middle" x="1095" y="-571.7132" font-family="Helvetica,sans-Serif" font-size="10.00" fill="#000000">session&#45;scoped UUID)</text>
</g>
<!-- visitor&#45;&gt;scenario -->
<g id="edge11" class="edge">
<title>visitor&#45;&gt;scenario</title>
<path fill="none" stroke="#555555" d="M1087.0462,-564.4578C1083.1742,-553.2522 1078.943,-539.0722 1077,-526 1069.0282,-472.367 1071.6939,-457.962 1077,-404 1078.307,-390.7081 1080.9683,-376.2073 1083.623,-363.8318"/>
<polygon fill="#555555" stroke="#555555" points="1087.0527,-364.5325 1085.8215,-354.0095 1080.2217,-363.0035 1087.0527,-364.5325"/>
<text text-anchor="middle" x="1119.5" y="-438.8" font-family="Helvetica,sans-Serif" font-size="9.00" fill="#000000">has_many (owner)</text>
</g>
<!-- visitor&#45;&gt;db -->
<g id="edge23" class="edge">
<title>visitor&#45;&gt;db</title>
<path fill="none" stroke="#aaaaaa" stroke-dasharray="5,2" d="M1157.0804,-567.6032C1216.6314,-550.6499 1297.7392,-527.373 1299,-526 1325.0585,-497.6239 1316,-479.5259 1316,-441 1316,-441 1316,-441 1316,-113.5 1316,-92.8453 1303.21,-73.7753 1289.8547,-59.4927"/>
<polygon fill="#aaaaaa" stroke="#aaaaaa" points="1291.9939,-56.6811 1282.4547,-52.0708 1287.0368,-61.6236 1291.9939,-56.6811"/>
</g>
<!-- scenario&#45;&gt;solution_pair -->
<g id="edge16" class="edge">
<title>scenario&#45;&gt;solution_pair</title>
<path fill="none" stroke="#555555" d="M1032.7278,-322.3165C1001.4759,-315.1155 967.3069,-304.8912 957,-293 943.936,-277.9279 940.2163,-255.9967 939.8666,-237.3272"/>
<polygon fill="#555555" stroke="#555555" points="943.3694,-237.115 939.9928,-227.0726 936.3699,-237.0288 943.3694,-237.115"/>
<text text-anchor="middle" x="1015" y="-285.8" font-family="Helvetica,sans-Serif" font-size="9.00" fill="#000000">.solutions.combination(2)</text>
</g>
<!-- solution -->
<g id="node16" class="node">
<title>solution</title>
<path fill="#ffffff" stroke="#000000" d="M1109.5,-134C1109.5,-134 1050.5,-134 1050.5,-134 1044.5,-134 1038.5,-128 1038.5,-122 1038.5,-122 1038.5,-105 1038.5,-105 1038.5,-99 1044.5,-93 1050.5,-93 1050.5,-93 1109.5,-93 1109.5,-93 1115.5,-93 1121.5,-99 1121.5,-105 1121.5,-105 1121.5,-122 1121.5,-122 1121.5,-128 1115.5,-134 1109.5,-134"/>
<text text-anchor="middle" x="1080" y="-122" font-family="Helvetica,sans-Serif" font-size="10.00" fill="#000000">Solution</text>
<text text-anchor="middle" x="1080" y="-111" font-family="Helvetica,sans-Serif" font-size="10.00" fill="#000000">initial_cost,</text>
<text text-anchor="middle" x="1080" y="-100" font-family="Helvetica,sans-Serif" font-size="10.00" fill="#000000">iteration_cost</text>
</g>
<!-- scenario&#45;&gt;solution -->
<g id="edge12" class="edge">
<title>scenario&#45;&gt;solution</title>
<path fill="none" stroke="#555555" d="M1089.9651,-312.8029C1088.0242,-273.9848 1083.8283,-190.0657 1081.5492,-144.4831"/>
<polygon fill="#555555" stroke="#555555" points="1085.0352,-144.115 1081.0401,-134.3023 1078.044,-144.4647 1085.0352,-144.115"/>
<text text-anchor="middle" x="1110" y="-198.8" font-family="Helvetica,sans-Serif" font-size="9.00" fill="#000000">has_many</text>
</g>
<!-- iteration -->
<g id="node17" class="node">
<title>iteration</title>
<path fill="#ffffff" stroke="#000000" d="M1202,-131.5C1202,-131.5 1168,-131.5 1168,-131.5 1162,-131.5 1156,-125.5 1156,-119.5 1156,-119.5 1156,-107.5 1156,-107.5 1156,-101.5 1162,-95.5 1168,-95.5 1168,-95.5 1202,-95.5 1202,-95.5 1208,-95.5 1214,-101.5 1214,-107.5 1214,-107.5 1214,-119.5 1214,-119.5 1214,-125.5 1208,-131.5 1202,-131.5"/>
<text text-anchor="middle" x="1185" y="-111" font-family="Helvetica,sans-Serif" font-size="10.00" fill="#000000">Iteration</text>
</g>
<!-- scenario&#45;&gt;iteration -->
<g id="edge13" class="edge">
<title>scenario&#45;&gt;iteration</title>
<path fill="none" stroke="#555555" d="M1111.5386,-312.802C1121.0498,-302.236 1131.8097,-288.7339 1139,-275 1161.8167,-231.4186 1174.5399,-175.1243 1180.5627,-141.8103"/>
<polygon fill="#555555" stroke="#555555" points="1184.0304,-142.2972 1182.287,-131.8468 1177.1329,-141.1035 1184.0304,-142.2972"/>
<text text-anchor="middle" x="1198" y="-198.8" font-family="Helvetica,sans-Serif" font-size="9.00" fill="#000000">has_many</text>
</g>
<!-- scenario&#45;&gt;db -->
<g id="edge19" class="edge">
<title>scenario&#45;&gt;db</title>
<path fill="none" stroke="#aaaaaa" stroke-dasharray="5,2" d="M1149.2094,-322.3997C1177.017,-314.0557 1208.2481,-299.65 1227,-275 1275.1357,-211.7238 1270.3204,-111.1789 1264.4019,-62.4002"/>
<polygon fill="#aaaaaa" stroke="#aaaaaa" points="1267.8419,-61.7152 1263.0625,-52.2596 1260.9022,-62.6318 1267.8419,-61.7152"/>
</g>
<!-- solution&#45;&gt;solution_tuple -->
<g id="edge18" class="edge">
<title>solution&#45;&gt;solution_tuple</title>
<path fill="none" stroke="#555555" stroke-dasharray="5,2" d="M1038.294,-120.8171C994.3136,-129.2349 923.4339,-144.8109 865,-167 858.2881,-169.5487 851.3802,-172.6237 844.688,-175.8696"/>
<polygon fill="#555555" stroke="#555555" points="843.0988,-172.7511 835.7348,-180.3684 846.2417,-179.0059 843.0988,-172.7511"/>
</g>
<!-- solution&#45;&gt;db -->
<g id="edge20" class="edge">
<title>solution&#45;&gt;db</title>
<path fill="none" stroke="#aaaaaa" stroke-dasharray="5,2" d="M1121.6437,-94.9213C1129.0858,-91.6109 1136.7702,-88.1991 1144,-85 1167.3077,-74.6868 1193.2772,-63.2629 1214.7255,-53.8459"/>
<polygon fill="#aaaaaa" stroke="#aaaaaa" points="1216.177,-57.0312 1223.9271,-49.8073 1213.3636,-50.6215 1216.177,-57.0312"/>
</g>
<!-- iteration&#45;&gt;db -->
<g id="edge21" class="edge">
<title>iteration&#45;&gt;db</title>
<path fill="none" stroke="#aaaaaa" stroke-dasharray="5,2" d="M1202.0187,-95.4602C1212.0164,-84.8626 1224.816,-71.2951 1235.8446,-59.6047"/>
<polygon fill="#aaaaaa" stroke="#aaaaaa" points="1238.4727,-61.9193 1242.7891,-52.2436 1233.381,-57.1158 1238.4727,-61.9193"/>
</g>
</g>
</svg>
