<?xml version="1.0" encoding="UTF-8" standalone="no"?>
<!DOCTYPE svg PUBLIC "-//W3C//DTD SVG 1.1//EN"
 "http://www.w3.org/Graphics/SVG/1.1/DTD/svg11.dtd">
<!-- Generated by graphviz version 2.40.1 (0)
 -->
<!-- Title: repo_relationship Pages: 1 -->
<svg width="2152pt" height="194pt"
 viewBox="0.00 0.00 2152.00 194.00" xmlns="http://www.w3.org/2000/svg" xmlns:xlink="http://www.w3.org/1999/xlink">
<g id="graph0" class="graph" transform="scale(1 1) rotate(0) translate(4 190)">
<title>repo_relationship</title>
<polygon fill="#ffffff" stroke="transparent" points="-4,4 -4,-190 2148,-190 2148,4 -4,4"/>
<g id="clust1" class="cluster">
<title>cluster_app</title>
<path fill="#eef5ff" stroke="#88aadd" d="M226,-105C226,-105 1057,-105 1057,-105 1063,-105 1069,-111 1069,-117 1069,-117 1069,-166 1069,-166 1069,-172 1063,-178 1057,-178 1057,-178 226,-178 226,-178 220,-178 214,-172 214,-166 214,-166 214,-117 214,-117 214,-111 220,-105 226,-105"/>
<text text-anchor="middle" x="321.5" y="-164.4" font-family="Helvetica,sans-Serif" font-size="12.00" fill="#000000">automation&#45;calculator (this repo)</text>
</g>
<g id="clust2" class="cluster">
<title>cluster_iac</title>
<path fill="#eefbe9" stroke="#77aa55" d="M20,-12C20,-12 1395,-12 1395,-12 1401,-12 1407,-18 1407,-24 1407,-24 1407,-81 1407,-81 1407,-87 1401,-93 1395,-93 1395,-93 20,-93 20,-93 14,-93 8,-87 8,-81 8,-81 8,-24 8,-24 8,-18 14,-12 20,-12"/>
<text text-anchor="middle" x="81.5" y="-79.4" font-family="Helvetica,sans-Serif" font-size="12.00" fill="#000000">core&#45;iac (sibling repo)</text>
</g>
<g id="clust3" class="cluster">
<title>cluster_runtime</title>
<path fill="#fbeaea" stroke="#cc7777" d="M1543,-8C1543,-8 1906,-8 1906,-8 1912,-8 1918,-14 1918,-20 1918,-20 1918,-123 1918,-123 1918,-129 1912,-135 1906,-135 1906,-135 1543,-135 1543,-135 1537,-135 1531,-129 1531,-123 1531,-123 1531,-20 1531,-20 1531,-14 1537,-8 1543,-8"/>
<text text-anchor="middle" x="1629" y="-121.4" font-family="Helvetica,sans-Serif" font-size="12.00" fill="#000000">AWS (provisioned by core&#45;iac)</text>
</g>
<!-- app_code -->
<g id="node1" class="node">
<title>app_code</title>
<path fill="#ffffff" stroke="#000000" d="M333,-149C333,-149 234,-149 234,-149 228,-149 222,-143 222,-137 222,-137 222,-125 222,-125 222,-119 228,-113 234,-113 234,-113 333,-113 333,-113 339,-113 345,-119 345,-125 345,-125 345,-137 345,-137 345,-143 339,-149 333,-149"/>
<text text-anchor="middle" x="283.5" y="-134.2" font-family="Helvetica,sans-Serif" font-size="11.00" fill="#000000">Rails app code</text>
<text text-anchor="middle" x="283.5" y="-122.2" font-family="Helvetica,sans-Serif" font-size="11.00" fill="#000000">(app/, db/, config/)</text>
</g>
<!-- dockerfile -->
<g id="node2" class="node">
<title>dockerfile</title>
<path fill="#ffffff" stroke="#000000" d="M687,-149C687,-149 574,-149 574,-149 568,-149 562,-143 562,-137 562,-137 562,-125 562,-125 562,-119 568,-113 574,-113 574,-113 687,-113 687,-113 693,-113 699,-119 699,-125 699,-125 699,-137 699,-137 699,-143 693,-149 687,-149"/>
<text text-anchor="middle" x="630.5" y="-128.2" font-family="Helvetica,sans-Serif" font-size="11.00" fill="#000000">Dockerfile.production</text>
</g>
<!-- app_code&#45;&gt;dockerfile -->
<g id="edge1" class="edge">
<title>app_code&#45;&gt;dockerfile</title>
<path fill="none" stroke="#000000" d="M345.1368,-131C402.6957,-131 488.8887,-131 551.4794,-131"/>
<polygon fill="#000000" stroke="#000000" points="551.7043,-134.5001 561.7042,-131 551.7042,-127.5001 551.7043,-134.5001"/>
<text text-anchor="middle" x="453.5" y="-134" font-family="Helvetica,sans-Serif" font-size="10.00" fill="#000000">built into</text>
</g>
<!-- go_push -->
<g id="node3" class="node">
<title>go_push</title>
<path fill="#ffffff" stroke="#000000" d="M1049,-149C1049,-149 937,-149 937,-149 931,-149 925,-143 925,-137 925,-137 925,-125 925,-125 925,-119 931,-113 937,-113 937,-113 1049,-113 1049,-113 1055,-113 1061,-119 1061,-125 1061,-125 1061,-137 1061,-137 1061,-143 1055,-149 1049,-149"/>
<text text-anchor="middle" x="993" y="-134.2" font-family="Helvetica,sans-Serif" font-size="11.00" fill="#000000">./go push prod</text>
<text text-anchor="middle" x="993" y="-122.2" font-family="Helvetica,sans-Serif" font-size="11.00" fill="#000000">(build + tag + push)</text>
</g>
<!-- dockerfile&#45;&gt;go_push -->
<g id="edge2" class="edge">
<title>dockerfile&#45;&gt;go_push</title>
<path fill="none" stroke="#000000" d="M699.1096,-131C760.5803,-131 850.689,-131 914.9029,-131"/>
<polygon fill="#000000" stroke="#000000" points="914.9782,-134.5001 924.9782,-131 914.9781,-127.5001 914.9782,-134.5001"/>
<text text-anchor="middle" x="812" y="-134" font-family="Helvetica,sans-Serif" font-size="10.00" fill="#000000">produces image</text>
</g>
<!-- hub -->
<g id="node4" class="node">
<title>hub</title>
<path fill="#fff4cc" stroke="#cc9900" d="M1402,-155.9563C1402,-159.0164 1361.2123,-161.5021 1311,-161.5021 1260.7877,-161.5021 1220,-159.0164 1220,-155.9563 1220,-155.9563 1220,-106.0438 1220,-106.0438 1220,-102.9836 1260.7877,-100.4979 1311,-100.4979 1361.2123,-100.4979 1402,-102.9836 1402,-106.0438 1402,-106.0438 1402,-155.9563 1402,-155.9563"/>
<path fill="none" stroke="#cc9900" d="M1402,-155.9563C1402,-152.8961 1361.2123,-150.4104 1311,-150.4104 1260.7877,-150.4104 1220,-152.8961 1220,-155.9563"/>
<text text-anchor="middle" x="1311" y="-140.2" font-family="Helvetica,sans-Serif" font-size="11.00" fill="#000000">Docker Hub</text>
<text text-anchor="middle" x="1311" y="-128.2" font-family="Helvetica,sans-Serif" font-size="11.00" fill="#000000">automationcalculationsci/</text>
<text text-anchor="middle" x="1311" y="-116.2" font-family="Helvetica,sans-Serif" font-size="11.00" fill="#000000">automation&#45;calculator:&lt;tag&gt;</text>
</g>
<!-- go_push&#45;&gt;hub -->
<g id="edge3" class="edge">
<title>go_push&#45;&gt;hub</title>
<path fill="none" stroke="#000000" d="M1061.219,-131C1104.4952,-131 1161.2647,-131 1209.7455,-131"/>
<polygon fill="#000000" stroke="#000000" points="1209.9572,-134.5001 1219.9571,-131 1209.9571,-127.5001 1209.9572,-134.5001"/>
<text text-anchor="middle" x="1140.5" y="-134" font-family="Helvetica,sans-Serif" font-size="10.00" fill="#000000">pushes :semver + :latest</text>
</g>
<!-- eks -->
<g id="node9" class="node">
<title>eks</title>
<path fill="#ffffff" stroke="#000000" d="M1639,-98C1639,-98 1551,-98 1551,-98 1545,-98 1539,-92 1539,-86 1539,-86 1539,-74 1539,-74 1539,-68 1545,-62 1551,-62 1551,-62 1639,-62 1639,-62 1645,-62 1651,-68 1651,-74 1651,-74 1651,-86 1651,-86 1651,-92 1645,-98 1639,-98"/>
<text text-anchor="middle" x="1595" y="-83.2" font-family="Helvetica,sans-Serif" font-size="11.00" fill="#000000">EKS Deployment</text>
<text text-anchor="middle" x="1595" y="-71.2" font-family="Helvetica,sans-Serif" font-size="11.00" fill="#000000">(pulls image)</text>
</g>
<!-- hub&#45;&gt;eks -->
<g id="edge8" class="edge">
<title>hub&#45;&gt;eks</title>
<path fill="none" stroke="#cc9900" stroke-dasharray="5,2" d="M1402.0312,-114.6528C1443.2862,-107.2444 1491.1589,-98.6475 1528.9008,-91.8699"/>
<polygon fill="#cc9900" stroke="#cc9900" points="1529.5402,-95.3112 1538.7642,-90.0987 1528.3029,-88.4214 1529.5402,-95.3112"/>
<text text-anchor="middle" x="1470.5" y="-113" font-family="Helvetica,sans-Serif" font-size="10.00" fill="#000000">image pull</text>
</g>
<!-- bump -->
<g id="node5" class="node">
<title>bump</title>
<path fill="#ffffff" stroke="#000000" d="M173,-64C173,-64 28,-64 28,-64 22,-64 16,-58 16,-52 16,-52 16,-32 16,-32 16,-26 22,-20 28,-20 28,-20 173,-20 173,-20 179,-20 185,-26 185,-32 185,-32 185,-52 185,-52 185,-58 179,-64 173,-64"/>
<text text-anchor="middle" x="100.5" y="-51.2" font-family="Helvetica,sans-Serif" font-size="11.00" fill="#000000">scripts/</text>
<text text-anchor="middle" x="100.5" y="-39.2" font-family="Helvetica,sans-Serif" font-size="11.00" fill="#000000">bump_app_docker_image_</text>
<text text-anchor="middle" x="100.5" y="-27.2" font-family="Helvetica,sans-Serif" font-size="11.00" fill="#000000">version.sh</text>
</g>
<!-- tfvars -->
<g id="node6" class="node">
<title>tfvars</title>
<path fill="#ffffff" stroke="#000000" d="M513,-60C513,-60 394,-60 394,-60 388,-60 382,-54 382,-48 382,-48 382,-36 382,-36 382,-30 388,-24 394,-24 394,-24 513,-24 513,-24 519,-24 525,-30 525,-36 525,-36 525,-48 525,-48 525,-54 519,-60 513,-60"/>
<text text-anchor="middle" x="453.5" y="-45.2" font-family="Helvetica,sans-Serif" font-size="11.00" fill="#000000">terraform/env/&lt;env&gt;/</text>
<text text-anchor="middle" x="453.5" y="-33.2" font-family="Helvetica,sans-Serif" font-size="11.00" fill="#000000">app_version variable</text>
</g>
<!-- bump&#45;&gt;tfvars -->
<g id="edge4" class="edge">
<title>bump&#45;&gt;tfvars</title>
<path fill="none" stroke="#000000" d="M185.0523,-42C241.6014,-42 315.6213,-42 371.6104,-42"/>
<polygon fill="#000000" stroke="#000000" points="371.8468,-45.5001 381.8467,-42 371.8467,-38.5001 371.8468,-45.5001"/>
<text text-anchor="middle" x="283.5" y="-45" font-family="Helvetica,sans-Serif" font-size="10.00" fill="#000000">bumps</text>
</g>
<!-- tf_module -->
<g id="node7" class="node">
<title>tf_module</title>
<path fill="#ffffff" stroke="#000000" d="M876,-64C876,-64 748,-64 748,-64 742,-64 736,-58 736,-52 736,-52 736,-32 736,-32 736,-26 742,-20 748,-20 748,-20 876,-20 876,-20 882,-20 888,-26 888,-32 888,-32 888,-52 888,-52 888,-58 882,-64 876,-64"/>
<text text-anchor="middle" x="812" y="-51.2" font-family="Helvetica,sans-Serif" font-size="11.00" fill="#000000">terraform/modules/aws/</text>
<text text-anchor="middle" x="812" y="-39.2" font-family="Helvetica,sans-Serif" font-size="11.00" fill="#000000">main_rails_app</text>
<text text-anchor="middle" x="812" y="-27.2" font-family="Helvetica,sans-Serif" font-size="11.00" fill="#000000">(helm_release)</text>
</g>
<!-- tfvars&#45;&gt;tf_module -->
<g id="edge5" class="edge">
<title>tfvars&#45;&gt;tf_module</title>
<path fill="none" stroke="#000000" d="M525.1862,-42C582.9637,-42 664.4011,-42 725.7436,-42"/>
<polygon fill="#000000" stroke="#000000" points="725.7941,-45.5001 735.794,-42 725.794,-38.5001 725.7941,-45.5001"/>
<text text-anchor="middle" x="630.5" y="-45" font-family="Helvetica,sans-Serif" font-size="10.00" fill="#000000">app_version</text>
</g>
<!-- chart -->
<g id="node8" class="node">
<title>chart</title>
<path fill="#ffffff" stroke="#000000" d="M1387,-62C1387,-62 1235,-62 1235,-62 1229,-62 1223,-56 1223,-50 1223,-50 1223,-38 1223,-38 1223,-32 1229,-26 1235,-26 1235,-26 1387,-26 1387,-26 1393,-26 1399,-32 1399,-38 1399,-38 1399,-50 1399,-50 1399,-56 1393,-62 1387,-62"/>
<text text-anchor="middle" x="1311" y="-47.2" font-family="Helvetica,sans-Serif" font-size="11.00" fill="#000000">helm/automation&#45;calculator/</text>
<text text-anchor="middle" x="1311" y="-35.2" font-family="Helvetica,sans-Serif" font-size="11.00" fill="#000000">(values.yaml, templates)</text>
</g>
<!-- tf_module&#45;&gt;chart -->
<g id="edge6" class="edge">
<title>tf_module&#45;&gt;chart</title>
<path fill="none" stroke="#000000" d="M888.0588,-42.3048C974.9278,-42.653 1117.3158,-43.2237 1212.577,-43.6055"/>
<polygon fill="#000000" stroke="#000000" points="1212.7836,-47.1063 1222.7975,-43.6465 1212.8117,-40.1063 1212.7836,-47.1063"/>
<text text-anchor="middle" x="993" y="-57" font-family="Helvetica,sans-Serif" font-size="10.00" fill="#000000">renders with</text>
<text text-anchor="middle" x="993" y="-46" font-family="Helvetica,sans-Serif" font-size="10.00" fill="#000000">image.tag = app_version</text>
</g>
<!-- chart&#45;&gt;eks -->
<g id="edge7" class="edge">
<title>chart&#45;&gt;eks</title>
<path fill="none" stroke="#000000" d="M1399.1578,-50.0678C1436.82,-53.2614 1481.1908,-57.8227 1521,-64 1523.6485,-64.411 1526.3445,-64.858 1529.0637,-65.3327"/>
<polygon fill="#000000" stroke="#000000" points="1528.4989,-68.7875 1538.9677,-67.1578 1529.7676,-61.9034 1528.4989,-68.7875"/>
<text text-anchor="middle" x="1470.5" y="-67" font-family="Helvetica,sans-Serif" font-size="10.00" fill="#000000">helm install/upgrade</text>
</g>
<!-- rds -->
<g id="node10" class="node">
<title>rds</title>
<path fill="#ffffff" stroke="#000000" d="M1898,-52C1898,-52 1813,-52 1813,-52 1807,-52 1801,-46 1801,-40 1801,-40 1801,-28 1801,-28 1801,-22 1807,-16 1813,-16 1813,-16 1898,-16 1898,-16 1904,-16 1910,-22 1910,-28 1910,-28 1910,-40 1910,-40 1910,-46 1904,-52 1898,-52"/>
<text text-anchor="middle" x="1855.5" y="-31.2" font-family="Helvetica,sans-Serif" font-size="11.00" fill="#000000">RDS PostgreSQL</text>
</g>
<!-- eks&#45;&gt;rds -->
<g id="edge9" class="edge">
<title>eks&#45;&gt;rds</title>
<path fill="none" stroke="#000000" d="M1651.2039,-70.0753C1692.1908,-62.8377 1747.826,-53.0134 1790.6885,-45.4446"/>
<polygon fill="#000000" stroke="#000000" points="1791.4979,-48.856 1800.7369,-43.6703 1790.2806,-41.9626 1791.4979,-48.856"/>
<text text-anchor="middle" x="1726" y="-66" font-family="Helvetica,sans-Serif" font-size="10.00" fill="#000000">DATABASE_URL</text>
</g>
<!-- alb -->
<g id="node11" class="node">
<title>alb</title>
<path fill="#ffffff" stroke="#000000" d="M1885,-106C1885,-106 1826,-106 1826,-106 1820,-106 1814,-100 1814,-94 1814,-94 1814,-82 1814,-82 1814,-76 1820,-70 1826,-70 1826,-70 1885,-70 1885,-70 1891,-70 1897,-76 1897,-82 1897,-82 1897,-94 1897,-94 1897,-100 1891,-106 1885,-106"/>
<text text-anchor="middle" x="1855.5" y="-91.2" font-family="Helvetica,sans-Serif" font-size="11.00" fill="#000000">ALB Ingress</text>
<text text-anchor="middle" x="1855.5" y="-79.2" font-family="Helvetica,sans-Serif" font-size="11.00" fill="#000000">+ Route 53</text>
</g>
<!-- eks&#45;&gt;alb -->
<g id="edge10" class="edge">
<title>eks&#45;&gt;alb</title>
<path fill="none" stroke="#000000" d="M1651.2039,-81.726C1696.4833,-83.1166 1759.64,-85.0561 1803.7037,-86.4093"/>
<polygon fill="#000000" stroke="#000000" points="1803.8114,-89.9142 1813.9141,-86.7229 1804.0263,-82.9175 1803.8114,-89.9142"/>
<text text-anchor="middle" x="1726" y="-99" font-family="Helvetica,sans-Serif" font-size="10.00" fill="#000000">Service</text>
<text text-anchor="middle" x="1726" y="-88" font-family="Helvetica,sans-Serif" font-size="10.00" fill="#000000">(NodePort)</text>
</g>
<!-- site -->
<g id="node12" class="node">
<title>site</title>
<polygon fill="#ffffff" stroke="#000000" points="2138,-106 1978,-106 1978,-70 2144,-70 2144,-100 2138,-106"/>
<polyline fill="none" stroke="#000000" points="2138,-106 2138,-100 "/>
<polyline fill="none" stroke="#000000" points="2144,-100 2138,-100 "/>
<text text-anchor="middle" x="2061" y="-85.2" font-family="Helvetica,sans-Serif" font-size="11.00" fill="#000000">automation&#45;calculations.io</text>
</g>
<!-- alb&#45;&gt;site -->
<g id="edge11" class="edge">
<title>alb&#45;&gt;site</title>
<path fill="none" stroke="#000000" d="M1897.086,-88C1917.4956,-88 1942.9673,-88 1967.7022,-88"/>
<polygon fill="#000000" stroke="#000000" points="1967.8689,-91.5001 1977.8689,-88 1967.8688,-84.5001 1967.8689,-91.5001"/>
<text text-anchor="middle" x="1944" y="-91" font-family="Helvetica,sans-Serif" font-size="10.00" fill="#000000">HTTPS</text>
</g>
</g>
</svg>
