<?xml version="1.0" encoding="utf-8"?>
<!-- Generator: Adobe Illustrator 21.0.2, SVG Export Plug-In . SVG Version: 6.00 Build 0)  -->
<svg version="1.1" id="Layer_1" xmlns="http://www.w3.org/2000/svg" xmlns:xlink="http://www.w3.org/1999/xlink" x="0px" y="0px"
	 viewBox="0 0 823.9 218.9" style="enable-background:new 0 0 823.9 218.9;" xml:space="preserve">
<style type="text/css">
	.st0{fill:#11192E;}
	.st1{fill:#5DBA00;}
	.st2{fill:#0D9C00;}
	.st3{fill:#72E300;}
	.st4{fill:#00E8E0;}
	.st5{fill:#B6E300;}
	.st6{fill:#00CCC5;}
	.st7{fill:#04A7B3;}
	.st8{fill:#0A7500;}
</style>
<g>
	<path class="st0" d="M390.5,145.2l-5.5,3c-1.6-2-3.7-3-6.3-3c-1.8,0-3.3,0.4-4.7,1.1c-1.4,0.8-2.5,1.9-3.3,3.3
		c-0.8,1.4-1.2,2.9-1.2,4.5c0,2.1,0.6,3.7,1.9,4.9c1.3,1.2,3.1,1.9,5.3,1.9c3.1,0,5.5-1,7.2-3.1l5.1,3.6c-1.5,1.7-3.3,3.1-5.4,4.1
		c-2.2,1-4.6,1.5-7.2,1.5c-4.1,0-7.4-1.1-9.8-3.4c-2.4-2.3-3.6-5.3-3.6-9c0-4.3,1.5-7.9,4.4-11c3-3,6.8-4.5,11.4-4.5
		C384,139,387.9,141,390.5,145.2z"/>
	<path class="st0" d="M432.1,139.7h6.5l-3.7,26.6h-6.5l0.4-2.9c-1.4,1.3-2.7,2.2-4,2.8c-1.2,0.5-2.6,0.8-4.2,0.8
		c-3.5,0-6.3-1.3-8.4-3.9c-2.1-2.6-3.1-5.6-3.1-9c0-2.6,0.7-5.1,2-7.5s3.1-4.2,5.4-5.6c2.2-1.3,4.6-2,7-2c1.6,0,3.2,0.4,4.6,1.1
		c1.4,0.8,2.5,1.9,3.4,3.3L432.1,139.7z M422.3,161.1c1.6,0,3-0.4,4.2-1.1c1.2-0.7,2.2-1.8,3-3.4c0.8-1.5,1.2-3.1,1.2-4.7
		c0-2.1-0.6-3.8-1.8-5.1c-1.2-1.3-2.8-1.9-4.8-1.9c-2.3,0-4.3,0.9-5.9,2.6c-1.6,1.7-2.4,3.9-2.4,6.6c0,2.1,0.6,3.8,1.8,5
		C418.8,160.5,420.3,161.1,422.3,161.1z"/>
	<polygon class="st0" points="461.9,129.4 468.4,129.4 463.3,166.3 456.8,166.3 	"/>
	<path class="st0" d="M512.6,145.2l-5.5,3c-1.6-2-3.7-3-6.3-3c-1.8,0-3.3,0.4-4.7,1.1c-1.4,0.8-2.5,1.9-3.3,3.3
		c-0.8,1.4-1.2,2.9-1.2,4.5c0,2.1,0.6,3.7,1.9,4.9c1.3,1.2,3.1,1.9,5.3,1.9c3.1,0,5.5-1,7.2-3.1l5.1,3.6c-1.5,1.7-3.3,3.1-5.4,4.1
		c-2.2,1-4.6,1.5-7.2,1.5c-4.1,0-7.4-1.1-9.8-3.4c-2.4-2.3-3.6-5.3-3.6-9c0-4.3,1.5-7.9,4.4-11c3-3,6.8-4.5,11.4-4.5
		C506.1,139,510,141,512.6,145.2z"/>
	<path class="st0" d="M534.8,139.7h6.5l-1.9,13.6c-0.2,1.5-0.3,2.6-0.3,3.4c0,1.2,0.4,2.2,1.2,3c0.8,0.8,1.9,1.2,3.2,1.2
		c1.7,0,3-0.5,3.9-1.5c0.9-1,1.6-3.1,2-6.3l1.8-13.3h6.5l-1.9,14.3c-0.4,3.2-1.2,5.7-2.2,7.5c-1,1.8-2.4,3.1-4.1,4.1
		c-1.7,0.9-3.7,1.4-6.1,1.4c-3.3,0-5.9-0.9-7.8-2.8c-1.9-1.9-2.9-4.3-2.9-7.3c0-1.8,0.2-4.2,0.6-7L534.8,139.7z"/>
	<polygon class="st0" points="580.5,129.4 587,129.4 581.9,166.3 575.4,166.3 	"/>
	<path class="st0" d="M626.4,139.7h6.5l-3.7,26.6h-6.5l0.4-2.9c-1.4,1.3-2.7,2.2-4,2.8c-1.2,0.5-2.6,0.8-4.2,0.8
		c-3.5,0-6.3-1.3-8.4-3.9c-2.1-2.6-3.1-5.6-3.1-9c0-2.6,0.7-5.1,2-7.5s3.1-4.2,5.4-5.6c2.2-1.3,4.6-2,7-2c1.6,0,3.2,0.4,4.6,1.1
		c1.4,0.8,2.5,1.9,3.4,3.3L626.4,139.7z M616.6,161.1c1.6,0,3-0.4,4.2-1.1c1.2-0.7,2.2-1.8,3-3.4c0.8-1.5,1.2-3.1,1.2-4.7
		c0-2.1-0.6-3.8-1.8-5.1c-1.2-1.3-2.8-1.9-4.8-1.9c-2.3,0-4.3,0.9-5.9,2.6c-1.6,1.7-2.4,3.9-2.4,6.6c0,2.1,0.6,3.8,1.8,5
		C613.1,160.5,614.7,161.1,616.6,161.1z"/>
	<polygon class="st0" points="657.5,129.8 664,129.8 662.7,139.7 666.8,139.7 666,145.3 661.9,145.3 659.1,166.3 652.5,166.3 
		655.4,145.3 652.2,145.3 653,139.7 656.2,139.7 	"/>
	<path class="st0" d="M698.2,139c2.4,0,4.5,0.5,6.4,1.6c1.9,1.1,3.4,2.6,4.5,4.6c1.1,2,1.6,4.3,1.6,6.8c0,4.1-1.5,7.7-4.4,10.6
		c-3,2.9-6.6,4.4-11,4.4c-3.8,0-6.8-1.1-9-3.4c-2.3-2.3-3.4-5.3-3.4-9c0-4.5,1.5-8.2,4.6-11.1C690.6,140.5,694.2,139,698.2,139z
		 M697.8,145.2c-2.7,0-4.7,1-6.1,2.9c-1.4,1.9-2.1,4-2.1,6.2c0,2,0.6,3.6,1.7,4.8c1.2,1.2,2.7,1.8,4.7,1.8c2.8,0,4.8-0.9,6.3-2.8
		c1.4-1.9,2.2-4,2.2-6.3c0-2-0.6-3.5-1.8-4.8C701.3,145.8,699.7,145.2,697.8,145.2z"/>
	<path class="st0" d="M733.2,139.7h5.8l-0.5,3.6c1.7-2.9,3.8-4.3,6.3-4.3c0.6,0,1.2,0.2,1.8,0.5l-2.4,5.9c-0.5-0.2-0.9-0.3-1.1-0.3
		c-1.3,0-2.4,0.7-3.4,2.2c-1,1.5-1.8,4.5-2.4,8.9l-1.3,10h-6.6L733.2,139.7z"/>
</g>
<g>
	<path class="st1" d="M346.6,61h12l-6.8,49h-11.9l0.7-5.3c-2.6,2.4-5.1,4.1-7.3,5.1c-2.3,1-4.8,1.4-7.6,1.4
		c-6.5,0-11.7-2.4-15.5-7.2c-3.8-4.8-5.8-10.3-5.8-16.7c0-4.8,1.2-9.4,3.7-13.8c2.5-4.4,5.7-7.8,9.9-10.2c4.1-2.4,8.5-3.7,13-3.7
		c3,0,5.8,0.7,8.4,2.1c2.6,1.4,4.7,3.4,6.3,6.1L346.6,61z M328.5,100.6c3,0,5.5-0.7,7.8-2c2.2-1.3,4.1-3.4,5.6-6.2
		c1.5-2.8,2.2-5.7,2.2-8.6c0-3.9-1.1-7-3.4-9.4c-2.3-2.4-5.2-3.5-8.9-3.5c-4.3,0-7.9,1.6-10.9,4.7c-3,3.2-4.5,7.2-4.5,12.2
		c0,3.8,1.1,6.9,3.4,9.3C322,99.4,325,100.6,328.5,100.6z"/>
	<path class="st1" d="M370.2,61h11.9L378.6,86c-0.4,2.8-0.5,4.8-0.5,6.2c0,2.2,0.8,4,2.3,5.5c1.5,1.5,3.5,2.2,5.9,2.2
		c3.1,0,5.5-0.9,7.1-2.8c1.7-1.9,2.9-5.7,3.7-11.5l3.4-24.6h11.9l-3.5,26.4c-0.8,5.9-2.2,10.5-4.1,13.8c-1.9,3.3-4.4,5.8-7.6,7.5
		c-3.2,1.7-6.9,2.6-11.2,2.6c-6,0-10.8-1.7-14.4-5.2c-3.6-3.5-5.3-8-5.3-13.5c0-3.4,0.4-7.7,1.2-13L370.2,61z"/>
	<polygon class="st1" points="429.6,42.8 441.6,42.8 439.1,61 446.7,61 445.3,71.4 437.7,71.4 432.5,110 420.5,110 425.7,71.4 
		419.8,71.4 421.2,61 427.2,61 	"/>
	<path class="st1" d="M477.5,59.7c4.4,0,8.3,1,11.9,3c3.6,2,6.3,4.9,8.3,8.6c2,3.7,3,7.8,3,12.4c0,7.6-2.7,14.1-8.2,19.5
		c-5.4,5.4-12.2,8-20.2,8c-7,0-12.5-2.1-16.7-6.3c-4.1-4.2-6.2-9.7-6.2-16.6c0-8.2,2.8-15.1,8.4-20.5
		C463.5,62.5,470,59.7,477.5,59.7z M476.7,71.1c-4.9,0-8.7,1.8-11.3,5.3c-2.6,3.5-3.9,7.4-3.9,11.5c0,3.7,1.1,6.6,3.2,8.9
		c2.1,2.2,5,3.4,8.6,3.4c5.1,0,8.9-1.7,11.6-5.1c2.7-3.4,4-7.3,4-11.7c0-3.6-1.1-6.5-3.4-8.8C483.2,72.3,480.3,71.1,476.7,71.1z"/>
	<path class="st1" d="M513.1,61h12.1l-0.7,5.4c4.4-4.4,9.2-6.6,14.6-6.6c2.2,0,4.2,0.4,6.1,1.1c1.9,0.7,3.5,1.7,4.6,2.9
		c1.2,1.2,2.2,2.8,3,4.9c2.3-2.9,4.9-5.1,7.9-6.6c3-1.5,6.2-2.3,9.5-2.3c4.1,0,7.5,1.4,10.2,4.1c2.7,2.8,4.1,6.3,4.1,10.7
		c0,1.7-0.2,3.7-0.5,6.2l-4,29.3h-12l3.4-25.2c0.5-3.4,0.7-5.6,0.7-6.8c0-2.3-0.6-4.1-1.7-5.3c-1.2-1.2-2.8-1.8-4.9-1.8
		c-2.1,0-4.1,0.7-6.2,2.2c-2.1,1.5-3.7,3.4-4.8,5.8c-1.1,2.4-2,6.6-2.8,12.5l-2.5,18.6h-12l3.6-26.7c0.3-2.2,0.5-4,0.5-5.6
		c0-2.1-0.6-3.8-1.9-5.1c-1.2-1.3-2.9-1.9-4.9-1.9c-1.9,0-3.9,0.7-6,2c-2,1.3-3.6,3.2-4.8,5.5c-1.1,2.3-2,5.8-2.6,10.6l-2.8,21.2
		h-12L513.1,61z"/>
	<path class="st1" d="M634.3,61h12l-6.8,49h-11.9l0.7-5.3c-2.6,2.4-5.1,4.1-7.3,5.1c-2.3,1-4.8,1.4-7.6,1.4
		c-6.5,0-11.7-2.4-15.5-7.2c-3.8-4.8-5.8-10.3-5.8-16.7c0-4.8,1.2-9.4,3.7-13.8c2.5-4.4,5.7-7.8,9.9-10.2c4.1-2.4,8.5-3.7,13-3.7
		c3,0,5.8,0.7,8.4,2.1c2.6,1.4,4.7,3.4,6.3,6.1L634.3,61z M616.3,100.6c3,0,5.5-0.7,7.8-2c2.2-1.3,4.1-3.4,5.6-6.2
		c1.5-2.8,2.2-5.7,2.2-8.6c0-3.9-1.1-7-3.4-9.4c-2.3-2.4-5.2-3.5-8.9-3.5c-4.3,0-7.9,1.6-10.9,4.7c-3,3.2-4.5,7.2-4.5,12.2
		c0,3.8,1.1,6.9,3.4,9.3C609.8,99.4,612.7,100.6,616.3,100.6z"/>
	<polygon class="st1" points="662.8,42.8 674.8,42.8 672.3,61 679.9,61 678.5,71.4 670.9,71.4 665.7,110 653.7,110 658.9,71.4 
		653,71.4 654.4,61 660.4,61 	"/>
	<path class="st1" d="M688.8,61h11.9l-6.6,49h-12L688.8,61z M697.1,40.9c2,0,3.8,0.7,5.2,2.2c1.5,1.5,2.2,3.2,2.2,5.2
		c0,2-0.7,3.8-2.2,5.2c-1.5,1.5-3.2,2.2-5.2,2.2c-2,0-3.8-0.7-5.2-2.2c-1.5-1.5-2.2-3.2-2.2-5.2c0-2,0.7-3.8,2.2-5.2
		C693.3,41.7,695,40.9,697.1,40.9z"/>
	<path class="st1" d="M733.1,59.7c4.4,0,8.3,1,11.9,3c3.6,2,6.3,4.9,8.3,8.6c2,3.7,3,7.8,3,12.4c0,7.6-2.7,14.1-8.2,19.5
		c-5.4,5.4-12.2,8-20.2,8c-7,0-12.5-2.1-16.7-6.3c-4.1-4.2-6.2-9.7-6.2-16.6c0-8.2,2.8-15.1,8.4-20.5
		C719.1,62.5,725.6,59.7,733.1,59.7z M732.3,71.1c-4.9,0-8.7,1.8-11.3,5.3c-2.6,3.5-3.9,7.4-3.9,11.5c0,3.7,1.1,6.6,3.2,8.9
		c2.1,2.2,5,3.4,8.6,3.4c5.1,0,8.9-1.7,11.6-5.1c2.7-3.4,4-7.3,4-11.7c0-3.6-1.1-6.5-3.4-8.8C738.8,72.3,735.8,71.1,732.3,71.1z"/>
	<path class="st1" d="M768.7,61h12l-0.7,5c4.6-4.2,9.4-6.2,14.3-6.2c4.2,0,7.7,1.3,10.4,4c2.7,2.7,4.1,6.1,4.1,10.2
		c0,1.9-0.3,4.8-0.8,8.6l-3.8,27.5h-12l3.7-26.8c0.4-2.8,0.5-4.8,0.5-6.2c0-2-0.6-3.5-1.7-4.6c-1.1-1.1-2.7-1.6-4.8-1.6
		c-2,0-4,0.7-6.1,2.1c-2,1.4-3.6,3.3-4.7,5.8c-1.1,2.5-2.1,7.1-3,13.9L774,110h-12L768.7,61z"/>
</g>
<g>
	<polygon class="st2" points="81.9,174.5 44,207 15.1,174.3 53.1,141.9 	"/>
</g>
<g>
	<polygon class="st3" points="91.1,109.4 53.1,141.9 24.3,109.2 62.3,76.7 	"/>
</g>
<g>
	<path class="st4" d="M119.1,153.7l17.8,20.1l-25.3,21.6l-17.8-20.1L119.1,153.7 M119.9,142l-38,32.5l28.8,32.7l38-32.5L119.9,142z"
		/>
</g>
<g>
	<polygon class="st5" points="100.2,44.2 62.3,76.7 33.4,44 71.4,11.6 	"/>
</g>
<g>
	<path class="st6" d="M186,153.9l17.8,20.1l-25.3,21.6l-17.8-20.1L186,153.9 M186.8,142.2l-38,32.5l28.8,32.7l38-32.5L186.8,142.2z"
		/>
</g>
<g>
	<polygon class="st1" points="167.1,44.4 129.1,76.9 100.2,44.2 138.2,11.7 	"/>
</g>
<g>
	<path class="st7" d="M195.1,88.8l17.8,20.1l-25.3,21.6l-17.8-20.1L195.1,88.8 M195.9,77.1l-38,32.5l28.8,32.7l38-32.5L195.9,77.1z"
		/>
</g>
<g>
	<polygon class="st8" points="233.9,44.6 195.9,77.1 167.1,44.4 205.1,11.9 	"/>
</g>
</svg>
